<svg width="64" height="27" viewBox="0 0 64 27" fill="none" xmlns="http://www.w3.org/2000/svg">
<path d="M2.134 9.83C2.134 9.614 2.134 9.368 2.134 9.092C2.146 8.804 2.164 8.528 2.188 8.264C1.996 8.276 1.768 8.288 1.504 8.3C1.252 8.3 1.06 8.306 0.928 8.318V6.95C1.492 6.95 1.96 6.92 2.332 6.86C2.716 6.8 3.016 6.728 3.232 6.644C3.46 6.56 3.616 6.482 3.7 6.41H4.672V11.684C5.08 11.324 5.494 11.072 5.914 10.928C6.334 10.784 6.73 10.712 7.102 10.712C7.822 10.712 8.452 10.898 8.992 11.27C9.544 11.642 9.97 12.17 10.27 12.854C10.582 13.538 10.738 14.342 10.738 15.266C10.738 16.226 10.558 17.09 10.198 17.858C9.85 18.614 9.352 19.208 8.704 19.64C8.056 20.072 7.276 20.288 6.364 20.288C6.04 20.288 5.626 20.216 5.122 20.072C4.63 19.94 4.174 19.652 3.754 19.208L3.214 20H2.134V9.83ZM4.672 17.3C4.672 17.708 4.738 18.032 4.87 18.272C5.002 18.512 5.17 18.686 5.374 18.794C5.578 18.902 5.782 18.962 5.986 18.974C6.526 18.986 6.946 18.83 7.246 18.506C7.558 18.182 7.774 17.756 7.894 17.228C8.026 16.688 8.092 16.124 8.092 15.536C8.092 14.984 8.026 14.462 7.894 13.97C7.762 13.478 7.552 13.082 7.264 12.782C6.976 12.47 6.598 12.32 6.13 12.332C5.83 12.344 5.554 12.422 5.302 12.566C5.05 12.698 4.84 12.878 4.672 13.106V17.3ZM12.0564 18.83C12.3924 18.83 12.6324 18.764 12.7764 18.632C12.9204 18.5 13.0104 18.314 13.0464 18.074C13.0944 17.822 13.1184 17.54 13.1184 17.228V14.204C13.1184 13.988 13.1244 13.748 13.1364 13.484C13.1484 13.208 13.1664 12.938 13.1904 12.674C12.9984 12.686 12.7704 12.698 12.5064 12.71C12.2544 12.71 12.0624 12.716 11.9304 12.728V11.36H12.6504C13.1184 11.36 13.5444 11.3 13.9284 11.18C14.3244 11.06 14.5824 10.94 14.7024 10.82H15.5844C15.6084 10.94 15.6264 11.168 15.6384 11.504C15.6504 11.828 15.6564 12.116 15.6564 12.368C15.9804 11.972 16.2864 11.654 16.5744 11.414C16.8624 11.174 17.1444 11 17.4204 10.892C17.7084 10.772 17.9964 10.712 18.2844 10.712C18.7044 10.712 19.0704 10.832 19.3824 11.072C19.6944 11.3 19.8504 11.678 19.8504 12.206C19.8504 12.386 19.8084 12.578 19.7244 12.782C19.6404 12.974 19.5084 13.136 19.3284 13.268C19.1484 13.4 18.9024 13.466 18.5904 13.466C18.3504 13.466 18.1044 13.394 17.8524 13.25C17.6004 13.106 17.4564 12.83 17.4204 12.422C17.1804 12.422 16.9404 12.524 16.7004 12.728C16.4604 12.92 16.2444 13.154 16.0524 13.43C15.8724 13.694 15.7464 13.94 15.6744 14.168V17.102C15.6744 17.27 15.6684 17.51 15.6564 17.822C15.6444 18.122 15.6264 18.41 15.6024 18.686C15.7944 18.662 16.0044 18.65 16.2324 18.65C16.4724 18.638 16.6524 18.632 16.7724 18.632V20H12.0564V18.83ZM20.7048 18.83C21.0408 18.83 21.2808 18.764 21.4248 18.632C21.5688 18.5 21.6588 18.314 21.6948 18.074C21.7428 17.822 21.7668 17.54 21.7668 17.228V14.24C21.7668 14.024 21.7728 13.778 21.7848 13.502C21.7968 13.214 21.8148 12.938 21.8388 12.674C21.6468 12.686 21.4188 12.698 21.1548 12.71C20.9028 12.71 20.7108 12.716 20.5788 12.728V11.36C21.1308 11.36 21.5988 11.33 21.9828 11.27C22.3668 11.21 22.6668 11.138 22.8828 11.054C23.1108 10.97 23.2668 10.892 23.3508 10.82H24.3228V17.102C24.3228 17.27 24.3168 17.51 24.3048 17.822C24.2928 18.122 24.2748 18.41 24.2508 18.686C24.4428 18.662 24.6528 18.65 24.8808 18.65C25.1208 18.638 25.3008 18.632 25.4208 18.632V20H20.7048V18.83ZM22.9548 9.398C22.5468 9.398 22.2108 9.254 21.9468 8.966C21.6828 8.678 21.5508 8.33 21.5508 7.922C21.5508 7.514 21.6888 7.166 21.9648 6.878C22.2408 6.59 22.5648 6.446 22.9368 6.446C23.3208 6.446 23.6388 6.59 23.8908 6.878C24.1548 7.166 24.2868 7.514 24.2868 7.922C24.2868 8.33 24.1668 8.678 23.9268 8.966C23.6868 9.254 23.3628 9.398 22.9548 9.398ZM30.0872 20.288C29.7272 20.288 29.3792 20.246 29.0432 20.162C28.7192 20.078 28.4192 19.922 28.1432 19.694C27.8792 19.454 27.6692 19.106 27.5132 18.65C27.3572 18.194 27.2792 17.588 27.2792 16.832L27.3152 12.494H26.0912V11C26.4632 10.988 26.8232 10.862 27.1712 10.622C27.5192 10.382 27.8132 10.07 28.0532 9.686C28.3052 9.302 28.4732 8.9 28.5572 8.48H29.8892L29.8712 11H32.1572V12.386L29.8712 12.44L29.8532 16.868C29.8532 17.144 29.8772 17.42 29.9252 17.696C29.9852 17.96 30.0932 18.182 30.2492 18.362C30.4052 18.53 30.6332 18.614 30.9332 18.614C31.1012 18.614 31.3292 18.554 31.6172 18.434C31.9172 18.314 32.2352 18.014 32.5712 17.534L33.4352 18.344C33.1112 18.824 32.7752 19.196 32.4272 19.46C32.0792 19.724 31.7432 19.916 31.4192 20.036C31.1072 20.156 30.8312 20.228 30.5912 20.252C30.3512 20.276 30.1832 20.288 30.0872 20.288ZM38.2247 20.288C37.3487 20.288 36.5747 20.096 35.9027 19.712C35.2307 19.316 34.7087 18.764 34.3367 18.056C33.9647 17.336 33.7787 16.49 33.7787 15.518C33.7787 14.678 33.9647 13.892 34.3367 13.16C34.7087 12.428 35.2307 11.84 35.9027 11.396C36.5867 10.94 37.3787 10.712 38.2787 10.712C38.7827 10.712 39.2747 10.784 39.7547 10.928C40.2347 11.06 40.6667 11.294 41.0507 11.63C41.4467 11.966 41.7587 12.422 41.9867 12.998C42.2267 13.574 42.3407 14.294 42.3287 15.158L36.4247 15.266C36.4247 15.914 36.5027 16.496 36.6587 17.012C36.8267 17.528 37.0967 17.936 37.4687 18.236C37.8407 18.536 38.3387 18.686 38.9627 18.686C39.2027 18.686 39.4727 18.644 39.7727 18.56C40.0847 18.476 40.3967 18.338 40.7087 18.146C41.0327 17.942 41.3327 17.672 41.6087 17.336L42.4187 18.092C41.9867 18.704 41.5247 19.172 41.0327 19.496C40.5407 19.808 40.0487 20.018 39.5567 20.126C39.0767 20.234 38.6327 20.288 38.2247 20.288ZM36.5327 14.006H39.8447C39.8327 13.502 39.7607 13.106 39.6287 12.818C39.5087 12.518 39.3407 12.302 39.1247 12.17C38.9087 12.038 38.6567 11.972 38.3687 11.972C37.8407 11.972 37.4267 12.164 37.1267 12.548C36.8267 12.92 36.6287 13.406 36.5327 14.006ZM43.6443 18.83C43.9803 18.83 44.2203 18.764 44.3643 18.632C44.5083 18.5 44.5983 18.314 44.6343 18.074C44.6823 17.822 44.7063 17.54 44.7063 17.228V14.204C44.7063 13.988 44.7123 13.748 44.7243 13.484C44.7363 13.208 44.7543 12.938 44.7783 12.674C44.5863 12.686 44.3583 12.698 44.0942 12.71C43.8423 12.71 43.6503 12.716 43.5183 12.728V11.36H44.2383C44.7063 11.36 45.1323 11.3 45.5163 11.18C45.9123 11.06 46.1703 10.94 46.2903 10.82H47.1723C47.1963 10.94 47.2143 11.168 47.2263 11.504C47.2383 11.828 47.2443 12.116 47.2443 12.368C47.5683 11.972 47.8743 11.654 48.1623 11.414C48.4503 11.174 48.7323 11 49.0083 10.892C49.2963 10.772 49.5843 10.712 49.8723 10.712C50.2923 10.712 50.6583 10.832 50.9703 11.072C51.2823 11.3 51.4383 11.678 51.4383 12.206C51.4383 12.386 51.3963 12.578 51.3123 12.782C51.2283 12.974 51.0963 13.136 50.9163 13.268C50.7363 13.4 50.4903 13.466 50.1783 13.466C49.9383 13.466 49.6923 13.394 49.4403 13.25C49.1883 13.106 49.0443 12.83 49.0083 12.422C48.7683 12.422 48.5283 12.524 48.2883 12.728C48.0483 12.92 47.8323 13.154 47.6403 13.43C47.4603 13.694 47.3343 13.94 47.2623 14.168V17.102C47.2623 17.27 47.2563 17.51 47.2443 17.822C47.2323 18.122 47.2143 18.41 47.1903 18.686C47.3823 18.662 47.5923 18.65 47.8203 18.65C48.0603 18.638 48.2403 18.632 48.3603 18.632V20H43.6443V18.83ZM56.3624 20.288C55.8464 20.288 55.3424 20.222 54.8504 20.09C54.3584 19.958 53.9744 19.79 53.6984 19.586L53.7344 20.126H52.3664L52.2944 17.03H53.4644C53.5004 17.39 53.6444 17.72 53.8964 18.02C54.1484 18.32 54.4784 18.56 54.8864 18.74C55.2944 18.908 55.7504 18.992 56.2544 18.992C56.4584 18.992 56.6504 18.962 56.8304 18.902C57.0224 18.842 57.1784 18.746 57.2984 18.614C57.4304 18.47 57.4964 18.296 57.4964 18.092C57.4964 17.864 57.4124 17.678 57.2444 17.534C57.0884 17.39 56.8544 17.252 56.5424 17.12C56.2424 16.988 55.8644 16.838 55.4084 16.67C55.0364 16.526 54.6584 16.376 54.2744 16.22C53.9024 16.064 53.5544 15.878 53.2304 15.662C52.9184 15.434 52.6664 15.158 52.4744 14.834C52.2824 14.498 52.1864 14.09 52.1864 13.61C52.1864 13.262 52.2524 12.92 52.3844 12.584C52.5164 12.236 52.7204 11.924 52.9964 11.648C53.2724 11.36 53.6204 11.132 54.0404 10.964C54.4724 10.796 54.9824 10.712 55.5704 10.712C55.8944 10.712 56.2604 10.766 56.6684 10.874C57.0884 10.97 57.4424 11.12 57.7304 11.324V10.802H59.0984V13.988H57.9284C57.8564 13.568 57.7064 13.208 57.4784 12.908C57.2624 12.608 56.9804 12.38 56.6324 12.224C56.2844 12.056 55.8944 11.972 55.4624 11.972C55.1624 11.972 54.8864 12.044 54.6344 12.188C54.3944 12.332 54.2744 12.578 54.2744 12.926C54.2744 13.202 54.3704 13.424 54.5624 13.592C54.7544 13.748 55.0184 13.88 55.3544 13.988C55.6904 14.096 56.0624 14.222 56.4704 14.366C57.0824 14.57 57.6224 14.81 58.0904 15.086C58.5704 15.362 58.9484 15.698 59.2244 16.094C59.5004 16.478 59.6384 16.952 59.6384 17.516C59.6384 18.14 59.4824 18.656 59.1704 19.064C58.8584 19.472 58.4504 19.778 57.9464 19.982C57.4544 20.186 56.9264 20.288 56.3624 20.288Z" fill="black"/>
<line x1="63.5" y1="5.21399" x2="63.5" y2="23.214" stroke="#E2E2E2"/>
</svg>
