<svg width="40" height="40" viewBox="0 0 40 40" fill="none" xmlns="http://www.w3.org/2000/svg">
<circle cx="20" cy="20" r="19.5" fill="white" stroke="black"/>
<path d="M15.638 14.31C15.638 13.998 15.638 13.6427 15.638 13.244C15.6553 12.828 15.6813 12.4293 15.716 12.048C15.4387 12.0653 15.1093 12.0827 14.728 12.1C14.364 12.1 14.0867 12.1087 13.896 12.126V10.15C14.7107 10.15 15.3867 10.1067 15.924 10.02C16.4787 9.93333 16.912 9.82933 17.224 9.708C17.5533 9.58667 17.7787 9.474 17.9 9.37H19.304V16.988C19.8933 16.468 20.4913 16.104 21.098 15.896C21.7047 15.688 22.2767 15.584 22.814 15.584C23.854 15.584 24.764 15.8527 25.544 16.39C26.3413 16.9273 26.9567 17.69 27.39 18.678C27.8407 19.666 28.066 20.8273 28.066 22.162C28.066 23.5487 27.806 24.7967 27.286 25.906C26.7833 26.998 26.064 27.856 25.128 28.48C24.192 29.104 23.0653 29.416 21.748 29.416C21.28 29.416 20.682 29.312 19.954 29.104C19.2433 28.9133 18.5847 28.4973 17.978 27.856L17.198 29H15.638V14.31ZM19.304 25.1C19.304 25.6893 19.3993 26.1573 19.59 26.504C19.7807 26.8507 20.0233 27.102 20.318 27.258C20.6127 27.414 20.9073 27.5007 21.202 27.518C21.982 27.5353 22.5887 27.31 23.022 26.842C23.4727 26.374 23.7847 25.7587 23.958 24.996C24.1487 24.216 24.244 23.4013 24.244 22.552C24.244 21.7547 24.1487 21.0007 23.958 20.29C23.7673 19.5793 23.464 19.0073 23.048 18.574C22.632 18.1233 22.086 17.9067 21.41 17.924C20.9767 17.9413 20.578 18.054 20.214 18.262C19.85 18.4527 19.5467 18.7127 19.304 19.042V25.1Z" fill="black"/>
</svg>
